# File created by Blade
# Date/Time:  Tue Sep 23 19:22:32 2014
# Frame Rate: 120.000 fps
#------------------------------------------------------
:FULLY-SPECIFIED
:DEGREES
2296
root -3.086608 32.526419 10.439413 370.131550 65.950413 -16.212314
Spine -45.741043 -8.187584 19.827050
Head 17.756469 -12.810071 6.657224
LeftShoulder -31.768614 56.273277 6.196358
LeftArm 22.936608 -17.059712 -79.973991
LeftForeArm 36.960753 -0.000000 112.300729
LeftHand 32.603761 -0.000000 12.215148
LeftHandThumb1 -26.253704 0.000000 33.147579
RightShoulder -58.027245 -54.672588 22.598639
RightArm 34.383256 0.727415 91.103737
RightForeArm 76.786882 -0.000000 -12.042422
RightHand 7.259159 0.000000 -3.374602
RightHandThumb1 -24.326973 -0.000000 -32.862282
LeftUpLeg -38.286623 11.976992 -4.207576
LeftLeg 11.924797 -0.000000 -0.000000
LeftFoot -17.816574 0.668004 -17.752556
LeftToeBase 0.683466 -0.000000 -0.000000
RightUpLeg -23.425782 -13.136555 -6.088257
RightLeg 110.847826 -0.000000 -0.000000
RightFoot 15.075698 13.635938 7.545079
RightToeBase 18.231321 -0.000000 -0.000000
2297
root -3.253733 32.500969 10.375673 371.651247 64.066302 -14.528289
Spine -45.026175 -7.730543 20.027226
Head 17.581569 -12.636457 6.465364
LeftShoulder -31.502503 56.160594 6.292319
LeftArm 23.076818 -17.997529 -80.069735
LeftForeArm 37.820277 -0.000000 111.828673
LeftHand 32.071420 -0.000000 13.063176
LeftHandThumb1 -26.253704 0.000000 33.147579
RightShoulder -57.610460 -55.000526 22.045164
RightArm 34.730534 0.849502 90.700736
RightForeArm 74.427040 -0.000000 -11.846590
RightHand 7.758731 -0.000000 -3.767672
RightHandThumb1 -24.326973 -0.000000 -32.862282
LeftUpLeg -38.288963 11.539626 -3.890427
LeftLeg 11.958214 -0.000000 -0.000000
LeftFoot -17.765421 0.637987 -17.988943
LeftToeBase 0.502182 -0.000000 -0.000000
RightUpLeg -23.480282 -13.561578 -6.131878
RightLeg 107.787249 -0.000000 -0.000000
RightFoot 11.739561 11.583885 8.741959
RightToeBase 18.145069 -0.000000 -0.000000
2298
root -3.416215 32.480870 10.316692 373.060796 62.143727 -13.003986
Spine -44.394814 -7.336508 20.250197
Head 17.499903 -12.371314 6.243382
LeftShoulder -31.386654 56.049921 6.284049
LeftArm 23.153545 -18.934515 -80.101929
LeftForeArm 38.861229 -0.000000 111.316846
LeftHand 31.428988 0.000000 14.127277
LeftHandThumb1 -26.253704 0.000000 33.147579
RightShoulder -57.028694 -55.356904 21.345113
RightArm 35.083347 1.366178 90.470384
RightForeArm 72.299942 -0.000000 -11.647099
RightHand 8.401984 -0.000000 -3.213358
RightHandThumb1 -24.326973 -0.000000 -32.862282
LeftUpLeg -38.345316 11.347160 -3.754331
LeftLeg 11.916264 -0.000000 -0.000000
LeftFoot -17.693848 0.500695 -17.837536
LeftToeBase 0.564399 -0.000000 -0.000000
RightUpLeg -23.512029 -14.022197 -6.265937
RightLeg 104.479273 -0.000000 -0.000000
RightFoot 8.404451 10.162719 9.588669
RightToeBase 18.230575 -0.000000 -0.000000
2299
root -3.588893 32.460941 10.255136 374.165291 60.205856 -11.760517
Spine -43.682192 -6.903528 20.414576
Head 17.417629 -12.168403 6.055053
LeftShoulder -31.208714 55.961547 6.355356
LeftArm 23.342432 -19.819348 -80.141548
LeftForeArm 39.983513 0.000000 110.625982
LeftHand 30.607043 0.000000 15.150856
LeftHandThumb1 -26.253704 0.000000 33.147579
RightShoulder -56.348202 -55.538503 20.498263
RightArm 35.268518 1.729051 90.119068
RightForeArm 70.671151 0.000000 -11.272474
RightHand 8.770904 -0.000000 -2.982573
RightHandThumb1 -24.326973 -0.000000 -32.862282
LeftUpLeg -38.351912 11.210021 -3.594002
LeftLeg 11.790603 -0.000000 -0.000000
LeftFoot -17.705525 0.535884 -17.457266
LeftToeBase 0.913170 -0.000000 -0.000000
RightUpLeg -23.512001 -14.422956 -6.336580
RightLeg 100.934621 -0.000000 -0.000000
RightFoot 5.180060 8.988282 9.958093
RightToeBase 16.867542 -0.000000 -0.000000
2300
root -3.772941 32.445210 10.188688 375.136093 58.299004 -10.753621
Spine -43.026014 -6.458272 20.610118
Head 17.321558 -11.942582 5.852298
LeftShoulder -30.490894 55.544310 6.972840
LeftArm 22.979415 -20.705379 -80.054185
LeftForeArm 41.121292 -0.000000 109.924974
LeftHand 29.639646 -0.000000 16.419585
LeftHandThumb1 -26.253704 0.000000 33.147579
RightShoulder -55.817904 -55.669985 19.817342
RightArm 35.626831 2.177775 89.766999
RightForeArm 69.460615 -0.000000 -10.863796
RightHand 9.064601 -0.000000 -3.149185
RightHandThumb1 -24.326973 -0.000000 -32.862282
LeftUpLeg -38.330667 10.755339 -3.161514
LeftLeg 11.480895 -0.000000 -0.000000
LeftFoot -17.543183 0.619243 -17.492953
LeftToeBase 0.856020 -0.000000 -0.000000
RightUpLeg -23.581575 -14.808304 -6.297336
RightLeg 97.098435 -0.000000 -0.000000
RightFoot 2.151054 7.884166 10.432929
RightToeBase 15.731519 -0.000000 -0.000000
2301
root -3.958336 32.426613 10.122386 376.013829 56.348884 -9.789853
Spine -42.316755 -6.023474 20.714243
Head 17.243112 -11.683212 5.680302
LeftShoulder -30.185970 55.457062 7.192253
LeftArm 23.140585 -21.673261 -80.102740
LeftForeArm 42.340610 -0.000000 109.018503
LeftHand 28.896755 0.000000 17.534336
LeftHandThumb1 -26.253704 0.000000 33.147579
RightShoulder -55.251277 -55.709340 19.061328
RightArm 36.100396 2.803680 89.499652
RightForeArm 68.615636 -0.000000 -10.658539
RightHand 9.475989 -0.000000 -3.334240
RightHandThumb1 -24.326973 -0.000000 -32.862282
LeftUpLeg -38.516114 10.914283 -3.154109
LeftLeg 11.503364 -0.000000 -0.000000
LeftFoot -17.314087 0.036521 -17.210423
LeftToeBase 0.584452 -0.000000 -0.000000
RightUpLeg -23.516311 -15.245147 -6.375960
RightLeg 93.005918 -0.000000 -0.000000
RightFoot -0.501803 7.642125 11.132407
RightToeBase 14.260176 -0.000000 -0.000000
2302
root -4.154482 32.409211 10.055384 376.849252 54.449549 -8.973562
Spine -41.701032 -5.670056 20.861202
Head 17.151314 -11.297394 5.558758
LeftShoulder -29.928840 55.380347 7.444099
LeftArm 23.259477 -22.547417 -80.104886
LeftForeArm 43.772515 -0.000000 107.953494
LeftHand 27.930542 -0.000000 19.032368
LeftHandThumb1 -26.253704 0.000000 33.147579
RightShoulder -54.494918 -55.699164 18.190616
RightArm 36.615738 3.317509 89.051398
RightForeArm 68.092419 -0.000000 -10.460707
RightHand 9.728210 -0.000000 -3.777476
RightHandThumb1 -24.326973 -0.000000 -32.862282
LeftUpLeg -38.631998 10.661195 -2.841595
LeftLeg 11.267369 -0.000000 -0.000000
LeftFoot -17.051140 -0.352301 -17.085298
LeftToeBase -0.010080 -0.000000 0.000000
RightUpLeg -23.459996 -15.574714 -6.396668
RightLeg 88.620700 -0.000000 -0.000000
RightFoot -2.131462 8.221822 12.270023
RightToeBase 12.181944 -0.000000 -0.000000
